<?xml version="1.0" encoding="UTF-8" standalone="no"?>
<!DOCTYPE svg PUBLIC "-//W3C//DTD SVG 1.1//EN" "http://www.w3.org/Graphics/SVG/1.1/DTD/svg11.dtd">
<svg width="48px" height="48px" viewBox="0 0 55 54" version="1.1" xmlns="http://www.w3.org/2000/svg" xmlns:xlink="http://www.w3.org/1999/xlink" xml:space="preserve" xmlns:serif="http://www.serif.com/" style="fill-rule:evenodd;clip-rule:evenodd;stroke-linecap:round;stroke-linejoin:round;stroke-miterlimit:1.5;">
    <g transform="matrix(1.33377,0,0,2.62361,-8.9315,-33.3797)">
        <path d="M12.315,27C12.315,27 19.677,25.183 27.5,27C37.045,29.217 42.315,27 42.315,27" style="fill:none;stroke:rgb(227,227,227);stroke-width:5.27px;"/>
    </g>
    <g transform="matrix(1.33377,0,0,2.62361,-8.9315,-57.583)">
        <path d="M12.315,27C12.315,27 19.677,25.183 27.5,27C37.045,29.217 42.315,27 42.315,27" style="fill:none;stroke:rgb(227,227,227);stroke-width:2.05px;"/>
    </g>
    <g transform="matrix(1.33377,0,0,2.62361,-8.9315,-47.404)">
        <path d="M12.315,27C12.315,27 19.677,25.183 27.5,27C37.045,29.217 42.315,27 42.315,27" style="fill:none;stroke:rgb(227,227,227);stroke-width:3.57px;"/>
    </g>
</svg>
